<mxfile host="app.diagrams.net" modified="2022-08-07T05:02:11.258Z" agent="5.0 (Macintosh)" etag="xKopkxt3VUAJBmtCLPGK" version="20.2.3" type="github">
  <diagram id="4dTw7T-u25xvdelndL4p" name="第 1 页">
    <mxGraphModel dx="1018" dy="537" grid="1" gridSize="10" guides="1" tooltips="1" connect="1" arrows="1" fold="1" page="1" pageScale="1" pageWidth="827" pageHeight="1169" math="0" shadow="0">
      <root>
        <mxCell id="0" />
        <mxCell id="1" parent="0" />
      </root>
    </mxGraphModel>
  </diagram>
</mxfile>
